<?xml version="1.0" encoding="UTF-8"?>
<svg id="Calque_1" data-name="Calque 1" xmlns="http://www.w3.org/2000/svg" viewBox="0 0 566.93 117.63">
  <path d="M528.78,1.6h-33.36l.73,2.61c12.76,0,14.94,11.46,14.94,26.54v61.5L474.82,1.6h-26.4l.73,2.76c12.18,0,15.52,3.63,15.52,18.86v69.62c0,17.7-4.06,21.47-8.85,21.47-5.8,0-9.28-3.34-10.59-9.57L423.62.58l-1.31-.58c-2.76,1.16-14.07,2.47-23.21,1.6l.29,2.61c14.5,1.74,16.25,5.08,13.78,16.1l-17.7,81.23c-2.03,9.14-6.09,12.76-12.33,13.49l-.73,2.61h30.31l-.73-2.61c-12.47,0-12.76-8.7-9.43-24.37l3.05-14.07h23.79l5.8,28.14c1.16,5.8-.58,10.01-10.3,10.3l-.73,2.61h61.21l-.73-2.61c-12.76-.87-15.66-9.14-15.66-25.53V14.07l42.06,103.56h4.35V21.03c0-13.05.44-16.68,12.62-16.68l.73-2.76ZM406.65,71.51l11.17-51.93,10.73,51.93h-21.9Z"/>
  <path d="M380.97,74.99c-5.37,34.52-9.57,37.71-22.05,37.71h-6.82c-3.92,0-7.98-.87-7.98-6.53v-47.72h9.72c5.8,0,8.99,5.66,12.47,20.6l2.47-.15c-2.47-16.83-3.77-28.86-4.5-46.12h-2.47c-.73,17.99-3.34,21.18-7.98,21.18h-9.72V6.96c2.32-.44,6.09-.58,9.57-.58l7.83.15c7.11.15,12.33,5.66,16.68,34.67h2.32l-3.19-37.71-.15-2.9c-6.53,1.02-20.89,1.02-41.05,1.02h-16.1l.73,2.76c12.18,0,14.07,3.63,14.07,16.68v77.16c0,13.05-1.89,16.68-14.07,16.68l-.73,2.76h59.18v-.58l4.79-42.35-3.05.29Z"/>
  <path d="M202.28,1.31c-4.35,0-10.3.29-17.12.29h-14.79l.73,2.76c12.33,0,14.07,2.47,14.07,10.59v83.26c0,13.05-.44,16.68-12.62,16.68l-.73,2.76h29.3c24.22,0,38-22.05,38-58.16,0-42.21-17.7-58.16-36.84-58.16ZM200.68,112.7c-2.76,0-6.24-.87-6.24-6.09V6.82c1.74-.44,3.48-.73,5.95-.73,16.25,0,28.43,16.83,28.43,53.38,0,29.15-7.83,53.23-28.14,53.23Z"/>
  <path d="M301.78,56.28c9.72-2.76,17.84-14.21,17.84-26.98,0-19.44-10.73-27.99-26.25-27.99-4.79,0-11.6.29-18.71.29h-14.79l.73,2.76c12.18,0,14.07,3.63,14.07,16.68v77.16c0,13.05-1.89,16.68-14.07,16.68l-.73,2.76h35.54c16.68,0,28.28-11.75,28.28-31.62s-11.75-27.99-21.9-29.73ZM284.08,6.82c1.74-.73,3.34-.73,7.11-.73,10.88,0,18.71,6.53,18.71,23.5,0,13.34-5.22,24.95-20.16,24.95h-5.66V6.82ZM292.64,112.7c-5.66,0-8.56-1.74-8.56-6.09v-47.58h5.66c14.94,0,24.08,8.7,24.08,26.98,0,16.39-7.54,26.69-21.18,26.69Z"/>
  <path d="M171.67,70.93c-6.09,38-9.43,41.77-24.08,41.77h-3.48c-6.53,0-8.56-1.74-8.56-9.86V21.03c0-13.05.44-16.68,12.62-16.68l.73-2.76H58.68l.58,2.61c12.18.15,10.73,13.49,7.98,29.3l-11.31,65.42L41.57,15.66c-1.45-8.12,1.74-10.73,8.56-11.46l.73-2.61h-31.18l.58,2.61c5.95,0,9.72,2.03,11.31,10.3l2.61,13.92-12.76,72.23L7.48,14.5c-1.16-6.96,1.89-10.3,9.72-10.3l.73-2.61H0v27.27l15.61,88.76h7.53l13.34-76.73,13.36,76.73h7.53l17.12-98.78c1.74-10.3,4.64-13.78,8.7-14.5,11.02.29,11.46,4.06,11.46,16.68v77.16c0,13.05-.44,16.68-12.62,16.68l-.73,2.76h88.33v-.15l4.64-46.56h-2.61ZM115.25,114.88c-10.88-.29-11.31-4.06-11.31-16.68V21.03c0-12.47.44-16.39,11.17-16.68,10.88.29,11.31,4.21,11.31,16.68l.15,80.5c0,10.01-1.45,13.05-11.31,13.34Z"/>
  <path d="M546.47,5.8c9.59,0,16.21,9.84,20.46,32.22V1.6h-1.6c-.15,4.21-1.45,4.93-2.76,4.93-2.9,0-7.25-5.51-15.81-5.51-11.75,0-19.87,10.3-19.87,25.96s8.12,24.37,17.99,34.38c10.73,11.02,19.73,20.31,19.73,34.23,0,10.01-5.37,17.84-12.18,17.84-13.05,0-17.84-17.7-23.64-43.66h-2.61l6.24,47.87h1.89c.44-4.35,1.31-4.93,2.76-4.93,2.09,0,5.56,3.52,10.95,4.93h8.86c4.01-1.08,7.45-3.61,10.08-7.14v-39.7c-3.48-6.21-8.76-12.82-16.4-20.46-10.73-10.73-15.96-17.84-15.96-28.57,0-9.28,4.93-15.96,11.89-15.96Z"/>
</svg>